<mxfile host="app.diagrams.net" modified="2021-05-14T08:07:29.536Z" agent="5.0 (X11; Linux x86_64) AppleWebKit/537.36 (KHTML, like Gecko) Chrome/89.0.4389.114 Safari/537.36" etag="3xCfjwQZzEuy14GMt8II" version="14.6.13" type="github">
  <diagram id="LQ-ePywkRAIVE-PGZBky" name="Page-1">
    <mxGraphModel dx="782" dy="458" grid="1" gridSize="10" guides="1" tooltips="1" connect="1" arrows="1" fold="1" page="1" pageScale="1" pageWidth="827" pageHeight="1169" math="0" shadow="0">
      <root>
        <mxCell id="0" />
        <mxCell id="1" parent="0" />
        <mxCell id="aZbzHPWwpXLdRD6761qa-1" value="双向模拟" style="ellipse;whiteSpace=wrap;html=1;" vertex="1" parent="1">
          <mxGeometry x="200" y="50" width="120" height="80" as="geometry" />
        </mxCell>
        <mxCell id="aZbzHPWwpXLdRD6761qa-7" value="" style="edgeStyle=orthogonalEdgeStyle;rounded=0;orthogonalLoop=1;jettySize=auto;html=1;" edge="1" parent="1" source="aZbzHPWwpXLdRD6761qa-4" target="aZbzHPWwpXLdRD6761qa-6">
          <mxGeometry relative="1" as="geometry" />
        </mxCell>
        <mxCell id="aZbzHPWwpXLdRD6761qa-4" value="正向模拟" style="ellipse;whiteSpace=wrap;html=1;" vertex="1" parent="1">
          <mxGeometry x="80" y="150" width="120" height="80" as="geometry" />
        </mxCell>
        <mxCell id="aZbzHPWwpXLdRD6761qa-9" value="" style="edgeStyle=orthogonalEdgeStyle;rounded=0;orthogonalLoop=1;jettySize=auto;html=1;" edge="1" parent="1" source="aZbzHPWwpXLdRD6761qa-5" target="aZbzHPWwpXLdRD6761qa-8">
          <mxGeometry relative="1" as="geometry" />
        </mxCell>
        <mxCell id="aZbzHPWwpXLdRD6761qa-5" value="反向模拟" style="ellipse;whiteSpace=wrap;html=1;" vertex="1" parent="1">
          <mxGeometry x="320" y="150" width="120" height="80" as="geometry" />
        </mxCell>
        <mxCell id="aZbzHPWwpXLdRD6761qa-6" value="安全程序正向模拟" style="ellipse;whiteSpace=wrap;html=1;" vertex="1" parent="1">
          <mxGeometry x="80" y="270" width="120" height="80" as="geometry" />
        </mxCell>
        <mxCell id="aZbzHPWwpXLdRD6761qa-11" value="" style="edgeStyle=orthogonalEdgeStyle;rounded=0;orthogonalLoop=1;jettySize=auto;html=1;" edge="1" parent="1" source="aZbzHPWwpXLdRD6761qa-8" target="aZbzHPWwpXLdRD6761qa-10">
          <mxGeometry relative="1" as="geometry" />
        </mxCell>
        <mxCell id="aZbzHPWwpXLdRD6761qa-8" value="安全程序反向模拟" style="ellipse;whiteSpace=wrap;html=1;" vertex="1" parent="1">
          <mxGeometry x="320" y="270" width="120" height="80" as="geometry" />
        </mxCell>
        <mxCell id="aZbzHPWwpXLdRD6761qa-10" value="语义保护" style="ellipse;whiteSpace=wrap;html=1;" vertex="1" parent="1">
          <mxGeometry x="500" y="270" width="120" height="80" as="geometry" />
        </mxCell>
        <mxCell id="aZbzHPWwpXLdRD6761qa-12" value="" style="endArrow=classic;html=1;exitX=0.5;exitY=1;exitDx=0;exitDy=0;" edge="1" parent="1" source="aZbzHPWwpXLdRD6761qa-1">
          <mxGeometry width="50" height="50" relative="1" as="geometry">
            <mxPoint x="235" y="230" as="sourcePoint" />
            <mxPoint x="380" y="150" as="targetPoint" />
          </mxGeometry>
        </mxCell>
        <mxCell id="aZbzHPWwpXLdRD6761qa-14" value="" style="endArrow=classic;html=1;" edge="1" parent="1">
          <mxGeometry width="50" height="50" relative="1" as="geometry">
            <mxPoint x="260" y="130" as="sourcePoint" />
            <mxPoint x="140" y="150" as="targetPoint" />
          </mxGeometry>
        </mxCell>
        <mxCell id="aZbzHPWwpXLdRD6761qa-19" value="" style="endArrow=classic;html=1;exitX=0.983;exitY=0.346;exitDx=0;exitDy=0;exitPerimeter=0;entryX=0.006;entryY=0.346;entryDx=0;entryDy=0;entryPerimeter=0;" edge="1" parent="1" source="aZbzHPWwpXLdRD6761qa-4" target="aZbzHPWwpXLdRD6761qa-5">
          <mxGeometry width="50" height="50" relative="1" as="geometry">
            <mxPoint x="235" y="220" as="sourcePoint" />
            <mxPoint x="285" y="170" as="targetPoint" />
          </mxGeometry>
        </mxCell>
        <mxCell id="aZbzHPWwpXLdRD6761qa-20" value="" style="endArrow=classic;html=1;exitX=0.983;exitY=0.346;exitDx=0;exitDy=0;exitPerimeter=0;entryX=0.006;entryY=0.346;entryDx=0;entryDy=0;entryPerimeter=0;" edge="1" parent="1">
          <mxGeometry width="50" height="50" relative="1" as="geometry">
            <mxPoint x="200.00000000000003" y="299.99999999999994" as="sourcePoint" />
            <mxPoint x="322.76000000000005" y="299.99999999999994" as="targetPoint" />
          </mxGeometry>
        </mxCell>
        <mxCell id="aZbzHPWwpXLdRD6761qa-22" value="" style="endArrow=classic;html=1;entryX=0.989;entryY=0.721;entryDx=0;entryDy=0;entryPerimeter=0;exitX=0.044;exitY=0.729;exitDx=0;exitDy=0;exitPerimeter=0;" edge="1" parent="1" source="aZbzHPWwpXLdRD6761qa-5" target="aZbzHPWwpXLdRD6761qa-4">
          <mxGeometry width="50" height="50" relative="1" as="geometry">
            <mxPoint x="230" y="260" as="sourcePoint" />
            <mxPoint x="280" y="210" as="targetPoint" />
            <Array as="points">
              <mxPoint x="290" y="208" />
            </Array>
          </mxGeometry>
        </mxCell>
        <mxCell id="aZbzHPWwpXLdRD6761qa-23" value="" style="endArrow=classic;html=1;entryX=0.989;entryY=0.721;entryDx=0;entryDy=0;entryPerimeter=0;exitX=0.044;exitY=0.729;exitDx=0;exitDy=0;exitPerimeter=0;" edge="1" parent="1">
          <mxGeometry width="50" height="50" relative="1" as="geometry">
            <mxPoint x="323.3" y="330.64000000000004" as="sourcePoint" />
            <mxPoint x="196.69999999999996" y="329.99999999999994" as="targetPoint" />
          </mxGeometry>
        </mxCell>
        <mxCell id="aZbzHPWwpXLdRD6761qa-25" value="C是确定性的" style="text;html=1;align=center;verticalAlign=middle;resizable=0;points=[];autosize=1;strokeColor=none;" vertex="1" parent="1">
          <mxGeometry x="210" y="160" width="100" height="20" as="geometry" />
        </mxCell>
        <mxCell id="aZbzHPWwpXLdRD6761qa-26" value="C是确定性的" style="text;html=1;align=center;verticalAlign=middle;resizable=0;points=[];autosize=1;strokeColor=none;" vertex="1" parent="1">
          <mxGeometry x="210" y="280" width="100" height="20" as="geometry" />
        </mxCell>
        <mxCell id="aZbzHPWwpXLdRD6761qa-27" value="S是确定性的" style="text;html=1;align=center;verticalAlign=middle;resizable=0;points=[];autosize=1;strokeColor=none;" vertex="1" parent="1">
          <mxGeometry x="215" y="210" width="90" height="20" as="geometry" />
        </mxCell>
        <mxCell id="aZbzHPWwpXLdRD6761qa-30" value="S是确定性的" style="text;html=1;align=center;verticalAlign=middle;resizable=0;points=[];autosize=1;strokeColor=none;" vertex="1" parent="1">
          <mxGeometry x="220" y="330" width="90" height="20" as="geometry" />
        </mxCell>
      </root>
    </mxGraphModel>
  </diagram>
</mxfile>
